<svg id="Layer_1" data-name="Layer 1" xmlns="http://www.w3.org/2000/svg" viewBox="0 0 586.289 115.252">
  <defs>
    <style>
      .cls-1 {
        fill: #63534e;
      }

      .cls-2 {
        fill: #877974;
      }
    </style>
  </defs>
  <title>CRO_Logo</title>
  <path class="cls-1" d="M600.106,31.131l-2.184,2.936A53.991,53.991,0,0,1,539.875,122.3l-2.048,3.081a57.6,57.6,0,0,0,62.28-94.253ZM505.518,72a53.974,53.974,0,0,1,82.018-46.148c1.178-.788,2.284-1.55,3.254-2.238a57.61,57.61,0,0,0-63.974,95.812l1.115-3.661A53.937,53.937,0,0,1,505.518,72Z" transform="translate(-30.855 -14.374)"/>
  <g>
    <path class="cls-1" d="M96.585,57.229q0,14.186-7.628,22.144T67.391,87.33a35.928,35.928,0,0,1-16.948-3.958,29.3,29.3,0,0,1-11.711-10.8,28.844,28.844,0,0,1-4.165-15.3,29.006,29.006,0,0,1,15.5-26.061,33.48,33.48,0,0,1,16.164-3.918,44.914,44.914,0,0,1,11.423,1.525,32.6,32.6,0,0,1,9.69,4.083L89,44.527h-.742a17.386,17.386,0,0,0-8-10.845,25.776,25.776,0,0,0-13.937-3.917,23.985,23.985,0,0,0-18.268,7.793q-7.3,7.794-7.3,19.587T48.3,76.9q7.547,7.96,19.752,7.959t19.917-7.917q7.711-7.917,7.711-21.69H96.5Q96.583,56.239,96.585,57.229Z" transform="translate(-30.855 -14.374)"/>
    <path class="cls-1" d="M176.417,100.2a24.61,24.61,0,0,1-6.144.907,30.425,30.425,0,0,1-4.742-.33,20.661,20.661,0,0,1-4.412-1.278,31.392,31.392,0,0,1-4.412-2.186,28.412,28.412,0,0,1-4.124-3.052,54.187,54.187,0,0,1-6.887-6.6q-3.092-3.545-11.917-13.319T122.068,61.352q-2.887-3.215-4.453-3.381v-.825a62.232,62.232,0,0,0,6.392-.206,21.814,21.814,0,0,0,3.423-.742,9.8,9.8,0,0,0,3.051-1.443q4.866-3.133,4.866-10.392,0-6.019-2.681-9.648A9.045,9.045,0,0,0,125.12,31H114.894V80.155a5.279,5.279,0,0,0,5.278,5.2h.989l.083.825H103.183v-.825h1.072a5.357,5.357,0,0,0,5.278-5.112V34.466a5.318,5.318,0,0,0-1.608-3.67,5.007,5.007,0,0,0-3.67-1.525h-1.072v-.825H125.45q7.255,0,11.67,4.083a14.024,14.024,0,0,1,4.412,10.8,17.406,17.406,0,0,1-4.041,11.546,12.452,12.452,0,0,1-9.9,4.824h-.082q2.8,2.969,6.351,6.928,14.266,15.753,18.309,19.793t7.134,6.64a31.15,31.15,0,0,0,5.484,3.835,20.115,20.115,0,0,0,9.649,2.639,12.075,12.075,0,0,0,1.979-.165Z" transform="translate(-30.855 -14.374)"/>
    <path class="cls-1" d="M162.479,35.579q8.824-8.288,22.886-8.288t22.886,8.288q8.824,8.29,8.825,21.731t-8.825,21.731q-8.826,8.288-22.886,8.288t-22.886-8.288q-8.826-8.288-8.824-21.731T162.479,35.579Zm4.5,41.689q6.968,7.589,18.35,7.588t18.35-7.588q6.968-7.586,6.97-19.958t-6.97-19.958q-6.97-7.586-18.35-7.587t-18.35,7.587q-6.97,7.589-6.969,19.958T166.975,77.269Z" transform="translate(-30.855 -14.374)"/>
    <path class="cls-1" d="M292.785,85.351H294.1v.825h-17.9v-.742h1.237a3.138,3.138,0,0,0,2.392-1.072,2.979,2.979,0,0,0,.824-2.474L276.95,40.4,259.632,78.918a32.45,32.45,0,0,0-2.8,8.412H256L234.89,41.559l-3.546,40.329a2.983,2.983,0,0,0,.824,2.433,3.087,3.087,0,0,0,2.392,1.113H235.8v.742h-16v-.825h1.319a6.067,6.067,0,0,0,4-1.4,5.754,5.754,0,0,0,2.021-3.794l6.186-52.864h.824l23.01,49.73,22.515-49.73h.742l6.351,52.864a5.673,5.673,0,0,0,2.062,3.794A6.112,6.112,0,0,0,292.785,85.351Z" transform="translate(-30.855 -14.374)"/>
    <path class="cls-1" d="M361.648,85.351h.659v.825H343.752v-.825h.742a3.087,3.087,0,0,0,2.6-1.113,3.494,3.494,0,0,0,.866-2.1,6.261,6.261,0,0,0-.33-1.979L342.35,66.135H320.083l-5.526,14.1a6.112,6.112,0,0,0-.329,1.938,3.455,3.455,0,0,0,.865,2.062,3.087,3.087,0,0,0,2.6,1.113h.743v.825H301.856v-.825h.742a7.2,7.2,0,0,0,4.041-1.319,9.465,9.465,0,0,0,3.217-3.876L328.5,35.786q3.05-6.681,3.051-8.5h.742l22.1,52.864a8.906,8.906,0,0,0,3.134,3.876A7.318,7.318,0,0,0,361.648,85.351ZM321.072,63.661H341.36l-9.9-26.474Z" transform="translate(-30.855 -14.374)"/>
    <path class="cls-1" d="M418.182,36.4q8.2,7.96,8.206,20.906t-8.206,20.906q-8.208,7.96-21.4,7.959H368.822v-.825h1.072a5,5,0,0,0,3.67-1.525,5.311,5.311,0,0,0,1.608-3.67V33.972a4.215,4.215,0,0,0-1.608-3.341,5.523,5.523,0,0,0-3.67-1.36h-.99l-.082-.825H396.78Q409.974,28.445,418.182,36.4ZM380.533,30.92V83.7H396.78a22.749,22.749,0,0,0,12.247-3.3,22.028,22.028,0,0,0,8.247-9.277A31.046,31.046,0,0,0,420.2,57.311q0-11.875-6.474-19.133T396.78,30.92Z" transform="translate(-30.855 -14.374)"/>
    <path class="cls-1" d="M434.057,85.351a5,5,0,0,0,3.67-1.525,5.311,5.311,0,0,0,1.608-3.67V33.972a4.26,4.26,0,0,0-1.567-3.341,5.477,5.477,0,0,0-3.711-1.36h-.99l-.082-.825h24.164a34.477,34.477,0,0,0,5.567-.494,22.776,22.776,0,0,0,4.247-.99V37.353h-.825V35.868A4.867,4.867,0,0,0,461.52,31H444.7V56.486h13.938a4.126,4.126,0,0,0,2.8-1.237,3.921,3.921,0,0,0,1.154-2.887V51.208h.824v13.03h-.824V63a3.893,3.893,0,0,0-1.113-2.8,3.981,3.981,0,0,0-2.763-1.237H444.7V83.619h11.794q6.1,0,9.318-2.722a20.161,20.161,0,0,0,5.361-8.082h.824l-4.783,13.36H432.984v-.825Z" transform="translate(-30.855 -14.374)"/>
  </g>
  <g>
    <path class="cls-1" d="M221.135,104.289v3.653h4.095v1.272h-4.095v6.1h-1.37v-12.3h5.6v1.272Z" transform="translate(-30.855 -14.374)"/>
    <path class="cls-1" d="M231.82,115.315h-1.37v-12.3h1.37Z" transform="translate(-30.855 -14.374)"/>
    <path class="cls-1" d="M237.253,102.494l9.591,10.048v-9.525h1.37V115.87l-9.591-10.032v9.478h-1.37Z" transform="translate(-30.855 -14.374)"/>
    <path class="cls-1" d="M253.631,103.017h6.378v1.272H255v3.653h4.86v1.272H255v4.828h5.007v1.272h-6.378Z" transform="translate(-30.855 -14.374)"/>
    <path class="cls-1" d="M282.455,105.708a5.263,5.263,0,0,0-3.752-1.631,5.09,5.09,0,0,0,.032,10.178,5.386,5.386,0,0,0,3.72-1.631v1.7a6.335,6.335,0,0,1-3.67,1.207,6.362,6.362,0,1,1,0-12.723,5.938,5.938,0,0,1,3.67,1.207Z" transform="translate(-30.855 -14.374)"/>
    <path class="cls-1" d="M288.965,110.341a4.556,4.556,0,0,0,.538,2.74,3.174,3.174,0,0,0,2.479,1.174,3.251,3.251,0,0,0,2.414-1.093,4.235,4.235,0,0,0,.6-2.821v-7.324h1.37v7.7a4.325,4.325,0,0,1-1.076,3.409,4.525,4.525,0,0,1-3.312,1.4,4.6,4.6,0,0,1-3.181-1.256,4.338,4.338,0,0,1-1.207-3.556v-7.7h1.37Z" transform="translate(-30.855 -14.374)"/>
    <path class="cls-1" d="M307.234,105.414a2.258,2.258,0,0,0-2.121-1.337,1.95,1.95,0,0,0-2.038,1.908c0,1.061,1.093,1.55,1.925,1.925l.815.358c1.6.7,2.952,1.5,2.952,3.458a3.882,3.882,0,0,1-7.7.62l1.338-.375a2.533,2.533,0,0,0,2.463,2.283,2.472,2.472,0,0,0,2.528-2.4c0-1.436-1.126-1.925-2.268-2.447l-.75-.326c-1.436-.652-2.675-1.386-2.675-3.147a3.227,3.227,0,0,1,3.441-3.132,3.529,3.529,0,0,1,3.181,1.908Z" transform="translate(-30.855 -14.374)"/>
    <path class="cls-1" d="M316.892,115.315h-1.37V104.289h-2.969v-1.272h7.34v1.272h-3Z" transform="translate(-30.855 -14.374)"/>
    <path class="cls-1" d="M336.353,109.183a6.41,6.41,0,1,1-6.41-6.378A6.377,6.377,0,0,1,336.353,109.183Zm-11.45-.017a5.04,5.04,0,1,0,5.04-5.089A5.086,5.086,0,0,0,324.9,109.166Z" transform="translate(-30.855 -14.374)"/>
    <path class="cls-1" d="M342.666,102.315l4.47,10.325,4.485-10.325,2.5,13h-1.4L351.132,107H351.1l-3.964,8.825L343.188,107h-.033l-1.582,8.319h-1.4Z" transform="translate(-30.855 -14.374)"/>
    <path class="cls-1" d="M375.8,105.708a5.263,5.263,0,0,0-3.752-1.631,5.09,5.09,0,0,0,.032,10.178,5.386,5.386,0,0,0,3.72-1.631v1.7a6.335,6.335,0,0,1-3.67,1.207,6.362,6.362,0,1,1,0-12.723,5.938,5.938,0,0,1,3.67,1.207Z" transform="translate(-30.855 -14.374)"/>
    <path class="cls-1" d="M382.813,111.825l-1.484,3.49h-1.5L385.5,102.43l5.529,12.886h-1.517l-1.452-3.49Zm2.658-6.2-2.1,4.927h4.159Z" transform="translate(-30.855 -14.374)"/>
    <path class="cls-1" d="M395.227,103.017h2.023c2.234,0,4.11.815,4.11,3.327a2.73,2.73,0,0,1-1.207,2.4,3.125,3.125,0,0,1,2.332,3.147c0,2.447-1.974,3.426-4.4,3.426h-2.854Zm1.371,5.415h.521c1.55,0,2.871-.179,2.871-2.088,0-1.859-1.175-2.055-2.854-2.055H396.6Zm0,5.611h1.37c1.533,0,3.147-.375,3.147-2.251,0-1.908-1.826-2.186-3.327-2.186H396.6Z" transform="translate(-30.855 -14.374)"/>
    <path class="cls-1" d="M408.75,115.315h-1.37v-12.3h1.37Z" transform="translate(-30.855 -14.374)"/>
    <path class="cls-1" d="M414.183,102.494l9.591,10.048v-9.525h1.37V115.87l-9.591-10.032v9.478h-1.37Z" transform="translate(-30.855 -14.374)"/>
    <path class="cls-1" d="M430.561,103.017h6.378v1.272h-5.007v3.653h4.86v1.272h-4.86v4.828h5.007v1.272h-6.378Z" transform="translate(-30.855 -14.374)"/>
    <path class="cls-1" d="M445.389,115.315h-1.37V104.289H441.05v-1.272h7.34v1.272h-3Z" transform="translate(-30.855 -14.374)"/>
    <path class="cls-1" d="M454.02,115.315h-1.371v-12.3h1.778c2.333,0,4.5.62,4.5,3.393a3.213,3.213,0,0,1-3.083,3.393l3.915,5.514h-1.68l-3.72-5.4h-.342Zm0-6.606h.424c1.55,0,3.115-.293,3.115-2.2,0-2.022-1.484-2.218-3.132-2.218h-.407Z" transform="translate(-30.855 -14.374)"/>
    <path class="cls-1" d="M462.91,103.017h1.582l3.132,5.48,3.132-5.48h1.582l-4.029,7.014v5.285h-1.37V110.03Z" transform="translate(-30.855 -14.374)"/>
  </g>
  <path class="cls-2" d="M592.085,30.608c-.266.179-.537.351-.8.538C580.6,39.766,568.078,44.467,563.242,45.2c-.661.164-.97-.056-1.233.491-.423,1.291-.841,3.645-3.711,4.626-.881.3-2.379-2.53-1.5-2.815a7.279,7.279,0,0,0,2.439-1.983c.216-.3.158-.422-.186-.538-6.44-2.385-3.293-7.143-1.172-7.427a4.307,4.307,0,0,1,4.788,4.106c.006.625.009.824.468.739,23.821-7.714,37.623-23.2,38.533-23.331.55.093,1.695,1.55,1,2.571-.78,1.208-27.246,35.992-27.4,36.277.169.187,17.319-2.877,18.275-2.874.812.125,1.294,2.424.868,2.615-.92.412-20.65,4.071-21.993,4.24-.4.05-1.24,1.777-1.444,2.1-.837,1.327-2.4,3.675-2.989,4.609-.451.713-.39.854.43,1.053,3.32.927,13.023,3.467,17.783,5.619,2.266,1.02,1.133,5.551-1.2,5.591-2.4.041-8.423-.783-20.291-3.079-1.208-.234-1.831-.336-2.295.531-2.88,5.857-16.106,34.709-29.691,46.383-1.28,1.1-1.719,1.522-2.868.7-1.508-1.075-.791-1.151-.064-3.491,4.444-14.306,6.939-28.172,7.088-47.951.028-3.7,6.711-2.77,9.131-2.481a144.546,144.546,0,0,1,15.19,2.858c.36.079.713.115.962-.3.49-.823,1.51-2.6,1.536-2.66.137-.326.092-.444-.259-.543-.54-.152-1.086-.282-1.629-.422-1.831-.4-9.523-2.207-11.059-3.244a8.112,8.112,0,0,1-1.35-2.709c-.057-.435.052-.594.468-.756,1.169-.456,19.71-4.844,20.3-4.912a3.186,3.186,0,0,0,1.5-.7C590.579,32.572,592.108,30.631,592.085,30.608ZM533.16,119.739l.147.077C546.4,104.4,560.312,77.3,560.359,77.174a.284.284,0,0,0-.18-.4,116.544,116.544,0,0,0-11.473-2.219c-6.555-.778-9.289-1.371-9.306,3.613C539.371,87.138,539.115,103.942,533.16,119.739Zm21.423-54.433c-3.611.119,9.784,3.344,10.042,3.4.51.106.635.056.9-.382.188-.311,2.508-4.156,3.5-5.758C569.157,62.342,555.977,64.856,554.583,65.306Zm9.8,9.774c-.122.386,16.577,3.225,19.438,3.429a.949.949,0,0,0,.113-1.869c-9.551-3.13-15.137-4.431-17.065-4.921-.561-.086-.588-.073-.869.408C565.946,72.226,564.872,74.264,564.386,75.08Zm-3.9-34.861a1.815,1.815,0,0,0-2.745-.252,2.183,2.183,0,0,0,.177,2.876C560.667,44.911,562.159,42.06,560.488,40.219Z" transform="translate(-30.855 -14.374)"/>
</svg>
